<svg xmlns="http://www.w3.org/2000/svg">
  <symbol id="cpu" viewBox="0 0 1024 1024">
    <rect x="307.2" y="307.2" width="409.6" height="409.6" rx="34.5" ry="34.5"/>
    <path d="M960.1,349.5A13.9,13.9,0,0,0,974,335.6v-2.2a13.9,13.9,0,0,0-13.9-13.9H870.4V277.1A123.5,123.5,0,0,0,746.9,153.6H704.5V63.9A13.9,13.9,0,0,0,690.6,50h-2.2a13.9,13.9,0,0,0-13.9,13.9v89.7H615.7V63.9A13.9,13.9,0,0,0,601.8,50h-2.2a13.9,13.9,0,0,0-13.9,13.9v89.7H527V63.9A13.9,13.9,0,0,0,513.1,50h-2.2A13.9,13.9,0,0,0,497,63.9v89.7H438.3V63.9A13.9,13.9,0,0,0,424.4,50h-2.2a13.9,13.9,0,0,0-13.9,13.9v89.7H349.5V63.9A13.9,13.9,0,0,0,335.6,50h-2.2a13.9,13.9,0,0,0-13.9,13.9v89.7H277.1A123.5,123.5,0,0,0,153.6,277.1v42.4H63.9A13.9,13.9,0,0,0,50,333.4v2.2a13.9,13.9,0,0,0,13.9,13.9h89.7v58.7H63.9A13.9,13.9,0,0,0,50,422.2v2.2a13.9,13.9,0,0,0,13.9,13.9h89.7V497H63.9A13.9,13.9,0,0,0,50,510.9v2.2A13.9,13.9,0,0,0,63.9,527h89.7v58.7H63.9A13.9,13.9,0,0,0,50,599.6v2.2a13.9,13.9,0,0,0,13.9,13.9h89.7v58.7H63.9A13.9,13.9,0,0,0,50,688.4v2.2a13.9,13.9,0,0,0,13.9,13.9h89.7v42.4A123.5,123.5,0,0,0,277.1,870.4h42.4v89.7A13.9,13.9,0,0,0,333.4,974h2.2a13.9,13.9,0,0,0,13.9-13.9V870.4h58.7v89.7A13.9,13.9,0,0,0,422.2,974h2.2a13.9,13.9,0,0,0,13.9-13.9V870.4H497v89.7A13.9,13.9,0,0,0,510.9,974h2.2A13.9,13.9,0,0,0,527,960.1V870.4h58.7v89.7A13.9,13.9,0,0,0,599.6,974h2.2a13.9,13.9,0,0,0,13.9-13.9V870.4h58.7v89.7A13.9,13.9,0,0,0,688.4,974h2.2a13.9,13.9,0,0,0,13.9-13.9V870.4h42.4A123.5,123.5,0,0,0,870.4,746.9V704.5h89.7A13.9,13.9,0,0,0,974,690.6v-2.2a13.9,13.9,0,0,0-13.9-13.9H870.4V615.7h89.7A13.9,13.9,0,0,0,974,601.8v-2.2a13.9,13.9,0,0,0-13.9-13.9H870.4V527h89.7A13.9,13.9,0,0,0,974,513.1v-2.2A13.9,13.9,0,0,0,960.1,497H870.4V438.3h89.7A13.9,13.9,0,0,0,974,424.4v-2.2a13.9,13.9,0,0,0-13.9-13.9H870.4V349.5ZM750.4,746.9a3.5,3.5,0,0,1-3.5,3.5H277.1a3.5,3.5,0,0,1-3.5-3.5V277.1a3.5,3.5,0,0,1,3.5-3.5H746.9a3.5,3.5,0,0,1,3.5,3.5Z"/>
  </symbol>
  <symbol id="gpu" viewBox="1044 0 1024 1024">
    <path d="M1887.8,248.8h-629V206.4c0-29.5-43.9-73.4-73.4-73.4h-51.1v31.6h47.8a43.1,43.1,0,0,1,43.1,43.1v98.7h-24.5V529.1h24.5V578h-24.5V706.4h24.5V869h33.5V772.2h96v60l228.5-1v-59H1631v59h147.9v-59h108.9c55.6,0,100.6-46,100.6-101.6V349.4A100.6,100.6,0,0,0,1887.8,248.8ZM1868.5,510a159.3,159.3,0,0,1-3.9,35.3h-66.2a94.8,94.8,0,0,0,6.6-29.4l60.9-35.2A159.6,159.6,0,0,1,1868.5,510Zm-99.7,74.8a95.7,95.7,0,0,0,20.4-22.2h70.3a158.6,158.6,0,0,1-33.4,55.3Zm35.3-88.4a94.6,94.6,0,0,0-9-28.8l35.2-60.9a158.4,158.4,0,0,1,31.2,56.5Zm-19.4-45.3a95.7,95.7,0,0,0-22.2-20.5V360.3a158.5,158.5,0,0,1,55.3,33.5Zm-39.5-95.8v66.3a94.6,94.6,0,0,0-29.4-6.6L1680.6,354a159.6,159.6,0,0,1,64.6,1.2Zm-155.7,258a158.4,158.4,0,0,1-31.2-56.5l57.4-33.1a94.6,94.6,0,0,0,9,28.8ZM1551.4,510a159.3,159.3,0,0,1,3.9-35.3h66.2a94.8,94.8,0,0,0-6.6,29.4l-60.9,35.2A159.6,159.6,0,0,1,1551.4,510Zm79.3-52.6h-70.3a158.6,158.6,0,0,1,33.4-55.3l57.4,33.1A95.7,95.7,0,0,0,1630.6,457.4Zm36.9-32.6-60.9-35.1a158.3,158.3,0,0,1,56.5-31.3l33.2,57.4A94.4,94.4,0,0,0,1667.5,424.8Zm-65.5,201.5,33.1-57.4a95.7,95.7,0,0,0,22.2,20.5v70.4A158.5,158.5,0,0,1,1602.1,626.3Zm72.6,38.5V598.4a94.6,94.6,0,0,0,29.4,6.6l35.2,60.9a159.6,159.6,0,0,1-64.6-1.2Zm82.1-3.1-33.2-57.4a94.4,94.4,0,0,0,28.8-9l60.9,35.1A158.3,158.3,0,0,1,1756.7,661.7Z"/>
  </symbol>
  <symbol id="fan" viewBox="2088 0 1024 1024">
    <path d="M3027.8,697.8,2742,532.7a144.8,144.8,0,0,0,1.5-20.7,143.2,143.2,0,0,0-10.4-53.7c45-78,89.3-142.7,40.1-276.4C2725.8,53,2546.9-71.2,2546.9,48.4V378.6a143.9,143.9,0,0,0-59.9,45c-90,0-168.2-6-259.3,103.5-87.8,105.5-105.8,322.6-2.4,262.8l285.8-165.1a142.8,142.8,0,0,0,68.8,29.5c45,78,78.9,148.7,219.2,173C2934.4,850.5,3131.3,757.6,3027.8,697.8ZM2600,596.8a84.8,84.8,0,1,1,84.7-84.8A84.7,84.7,0,0,1,2600,596.8Z"/>
  </symbol>
  <symbol id="batt0" viewBox="3132 0 1024 1024">
    <path d="M4053,268.8h-93.2V229.3H3815.6v39.5H3473V229.3H3328.9v39.5H3235a103.1,103.1,0,0,0-103,103.1V792.2H4156V371.9A103.1,103.1,0,0,0,4053,268.8ZM3473,530.5H3328.9v-37H3473Zm486.7,0h-53.6v53.6h-37V530.5h-53.6v-37h53.6V439.9h37v53.6h53.6Z"/>
  </symbol>
  <symbol id="batt1" viewBox="4176 0 1024 1024">
    <path d="M5097,268.8h-93.2V229.3H4859.6v39.5H4517V229.3H4372.9v39.5H4279a103.1,103.1,0,0,0-103,103.1V792.2H5200V371.9A103.1,103.1,0,0,0,5097,268.8Z"/>
  </symbol>
  <symbol id="batt2" viewBox="5220 0 1024 1024">
    <path d="M6141,268.8h-93.2V229.3H5903.6v39.5H5561V229.3H5416.9v39.5H5323a103.1,103.1,0,0,0-103,103.1V792.2H6244V371.9A103.1,103.1,0,0,0,6141,268.8Zm-468.7,378V510.1H5310.7l477.9-136.6V510.1h361.6Z"/>
  </symbol>
</svg>
