<svg xmlns="http://www.w3.org/2000/svg">
  <symbol id="cpu" viewBox="0 0 1024 1024">
    <rect x="307.2" y="307.2" width="409.6" height="409.6" rx="34.49" ry="34.49"/>
    <path d="M960.1,349.52a13.9,13.9,0,0,0,13.9-13.9v-2.2a13.9,13.9,0,0,0-13.9-13.9H870.4V277.13A123.53,123.53,0,0,0,746.87,153.6H704.48V63.9A13.9,13.9,0,0,0,690.57,50h-2.2a13.9,13.9,0,0,0-13.9,13.9v89.7H615.74V63.9A13.9,13.9,0,0,0,601.84,50h-2.2a13.9,13.9,0,0,0-13.9,13.9v89.7H527V63.9A13.9,13.9,0,0,0,513.1,50h-2.2A13.9,13.9,0,0,0,497,63.9v89.7H438.26V63.9A13.9,13.9,0,0,0,424.36,50h-2.2a13.9,13.9,0,0,0-13.9,13.9v89.7H349.52V63.9A13.9,13.9,0,0,0,335.62,50h-2.2a13.9,13.9,0,0,0-13.9,13.9v89.7H277.13A123.53,123.53,0,0,0,153.6,277.13v42.39H63.9A13.9,13.9,0,0,0,50,333.43v2.2a13.9,13.9,0,0,0,13.9,13.9h89.7v58.74H63.9A13.9,13.9,0,0,0,50,422.16v2.2a13.9,13.9,0,0,0,13.9,13.9h89.7V497H63.9A13.9,13.9,0,0,0,50,510.9v2.2A13.9,13.9,0,0,0,63.9,527h89.7v58.74H63.9A13.9,13.9,0,0,0,50,599.64v2.2a13.9,13.9,0,0,0,13.9,13.9h89.7v58.74H63.9A13.9,13.9,0,0,0,50,688.38v2.2a13.9,13.9,0,0,0,13.9,13.9h89.7v42.39A123.53,123.53,0,0,0,277.13,870.4h42.39v89.7a13.9,13.9,0,0,0,13.9,13.9h2.2a13.9,13.9,0,0,0,13.9-13.9V870.4h58.74v89.7a13.9,13.9,0,0,0,13.9,13.9h2.2a13.9,13.9,0,0,0,13.9-13.9V870.4H497v89.7A13.9,13.9,0,0,0,510.9,974h2.2A13.9,13.9,0,0,0,527,960.1V870.4h58.74v89.7a13.9,13.9,0,0,0,13.9,13.9h2.2a13.9,13.9,0,0,0,13.9-13.9V870.4h58.74v89.7a13.9,13.9,0,0,0,13.9,13.9h2.2a13.9,13.9,0,0,0,13.9-13.9V870.4h42.39A123.53,123.53,0,0,0,870.4,746.87V704.48h89.7a13.9,13.9,0,0,0,13.9-13.9v-2.2a13.9,13.9,0,0,0-13.9-13.9H870.4V615.74h89.7a13.9,13.9,0,0,0,13.9-13.9v-2.2a13.9,13.9,0,0,0-13.9-13.9H870.4V527h89.7A13.9,13.9,0,0,0,974,513.1v-2.2A13.9,13.9,0,0,0,960.1,497H870.4V438.26h89.7a13.9,13.9,0,0,0,13.9-13.9v-2.2a13.9,13.9,0,0,0-13.9-13.9H870.4V349.52ZM750.4,746.87a3.53,3.53,0,0,1-3.53,3.53H277.13a3.53,3.53,0,0,1-3.53-3.53V277.13a3.53,3.53,0,0,1,3.53-3.53H746.87a3.53,3.53,0,0,1,3.53,3.53Z"/>
  </symbol>
  <symbol id="gpu" viewBox="1045 0 1024 1024">
    <ellipse cx="1709.95" cy="510.01" rx="95.15" ry="95.21"/>
    <path d="M1887.84,248.77h-629V206.39c0-29.5-43.9-73.41-73.38-73.41h-51.05v31.61h47.8a43.1,43.1,0,0,1,43.09,43.12v98.72H1200.8V529.12h24.53V578H1200.8V706.44h24.53V869h33.54V772.21h96v60l228.46-1v-59H1631v59h147.92v-59h108.92c55.56,0,100.6-46,100.6-101.63V349.43A100.63,100.63,0,0,0,1887.84,248.77ZM1710,668.69c-87.58,0-158.58-71-158.58-158.68s71-158.68,158.58-158.68,158.58,71,158.58,158.68S1797.54,668.69,1710,668.69Z"/>
  </symbol>
  <symbol id="fan" viewBox="2090 0 1024 1024">
    <path d="M3022.18,697.81,2736.36,532.69a144.83,144.83,0,0,0,1.49-20.69,143.24,143.24,0,0,0-10.4-53.74c45-78,89.29-142.69,40.11-276.44-47.37-128.84-226.3-253-226.3-133.46V378.57a143.9,143.9,0,0,0-59.93,45c-90,0-168.16-6-259.34,103.47-87.82,105.47-105.83,322.61-2.36,262.84l285.83-165.12a142.77,142.77,0,0,0,68.85,29.47c45,78,78.85,148.74,219.22,173C2928.72,850.55,3125.65,757.58,3022.18,697.81Zm-427.83-101A84.77,84.77,0,1,1,2679.08,512,84.75,84.75,0,0,1,2594.36,596.77Z"/>
  </symbol>
  <symbol id="batt0" viewBox="3135 0 1024 1024">
    <path d="M4053,268.77h-93.22V229.26H3815.62v39.51H3473V229.26H3328.88v39.51H3235a103.06,103.06,0,0,0-103,103.09V792.21H4156V371.86A103.06,103.06,0,0,0,4053,268.77ZM3473,530.49H3328.88v-37H3473Zm486.74,0h-53.58v53.62h-37V530.49h-53.58v-37h53.58V439.89h37v53.62h53.58Z"/>
  </symbol>
  <symbol id="batt1" viewBox="4180 0 1024 1024">
    <path d="M5097,268.77h-93.22V229.26H4859.62v39.51H4517V229.26H4372.88v39.51H4279a103.06,103.06,0,0,0-103,103.09V792.21H5200V371.86A103.06,103.06,0,0,0,5097,268.77Z"/>
    <rect x="1678.89" y="336.8" width="17.29" height="92.95" transform="translate(34.45 895.12) rotate(-30)"/>
    <rect x="1618.53" y="364.99" width="17.29" height="92.95" transform="translate(457.25 1614.91) rotate(-60)"/>
    <rect x="1580.35" y="419.59" width="17.29" height="92.95" transform="translate(1122.93 2055.05) rotate(-90)"/>
    <rect x="1574.58" y="485.95" width="17.29" height="92.95" transform="translate(1913.74 2169.75) rotate(-120)"/>
    <rect x="1602.77" y="546.32" width="17.29" height="92.95" transform="translate(2710.54 1911.87) rotate(-150)"/>
    <rect x="1657.36" y="584.5" width="17.29" height="92.95" transform="translate(3332.01 1261.94) rotate(-180)"/>
    <rect x="1723.73" y="590.27" width="17.29" height="92.95" transform="translate(3551.02 321.98) rotate(150)"/>
    <rect x="1784.09" y="562.08" width="17.29" height="92.95" transform="translate(3216.12 -639.73) rotate(120)"/>
    <rect x="1822.27" y="507.48" width="17.29" height="92.95" transform="translate(2384.87 -1276.96) rotate(90)"/>
    <rect x="1828.04" y="441.12" width="17.29" height="92.95" transform="translate(1340.61 -1346.82) rotate(60)"/>
    <rect x="1799.85" y="380.75" width="17.29" height="92.95" transform="translate(455.91 -847.01) rotate(30)"/>
    <rect x="1745.26" y="342.57" width="17.29" height="92.95"/>
  </symbol>
  <symbol id="batt2" viewBox="5225 0 1024 1024">
    <path d="M6141,268.77h-93.22V229.26H5903.62v39.51H5561V229.26H5416.88v39.51H5323a103.06,103.06,0,0,0-103,103.09V792.21H6244V371.86A103.06,103.06,0,0,0,6141,268.77Zm-468.71,378V510.1H5310.68l477.89-136.63V510.1h361.58Z"/>
  </symbol>
</svg>
