<svg id="gpu" xmlns="http://www.w3.org/2000/svg" viewBox="0 0 809.45 809.45"><title>svg_gpu</title><path d="M714.62,419A125.43,125.43,0,1,1,589.18,293.53,125.43,125.43,0,0,1,714.62,419ZM589.18,343.7A75.26,75.26,0,1,0,664.44,419,75.26,75.26,0,0,0,589.18,343.7Zm140.7-131.24H82.1V179a42.22,42.22,0,0,0-42.22-42.22H-.5v9.18H37.31A34.08,34.08,0,0,1,71.39,180v78H52v176h19.4V472.7H52V574.23h19.4V702.71H82.1V626.23H221.3v47.42l244-.76V626.23h53.54v46.65H659.55V626.23h70.33c43.95,0,79.57-36.39,79.57-80.34V292A79.57,79.57,0,0,0,729.88,212.46Z"/></svg>