<svg id="Fan" xmlns="http://www.w3.org/2000/svg" viewBox="0 0 809.45 809.45"><title>svg_fan</title><path d="M491.23,404.73a86.5,86.5,0,1,1-86.5-86.5A86.5,86.5,0,0,1,491.23,404.73ZM743.13,551.6,517,421.08a114.41,114.41,0,0,0,1.18-16.35A113.17,113.17,0,0,0,510,362.25c35.57-61.66,70.62-112.8,31.72-218.52-37.47-101.85-179-200-179-105.5v261a113.82,113.82,0,0,0-47.4,35.54c-71.2,0-133-4.77-205.13,81.79-69.47,83.38-83.71,255-1.87,207.77L334.41,493.82a113,113,0,0,0,54.46,23.3c35.62,61.64,62.37,117.58,173.4,136.75C669.2,672.34,825,598.85,743.13,551.6Z"/></svg>